<svg width="25" height="25" viewBox="0 0 25 25" fill="none" xmlns="http://www.w3.org/2000/svg">
<path d="M12.6 5.24C14.8533 5.24 16.3733 6.21333 17.24 7.02667L20.6267 3.72C18.5467 1.78667 15.84 0.599998 12.6 0.599998C7.90667 0.599998 3.85334 3.29333 1.88 7.21333L5.76 10.2267C6.73334 7.33333 9.42667 5.24 12.6 5.24Z" fill="#EA4335"/>
<path d="M24.12 12.8667C24.12 11.88 24.04 11.16 23.8667 10.4133H12.6V14.8667H19.2133C19.08 15.9733 18.36 17.64 16.76 18.76L20.5467 21.6933C22.8133 19.6 24.12 16.52 24.12 12.8667Z" fill="#4285F4"/>
<path d="M5.77334 14.9733C5.52001 14.2267 5.37334 13.4267 5.37334 12.6C5.37334 11.7733 5.52001 10.9733 5.76001 10.2267L1.88001 7.21333C1.06667 8.84 0.600006 10.6667 0.600006 12.6C0.600006 14.5333 1.06667 16.36 1.88001 17.9867L5.77334 14.9733Z" fill="#FBBC05"/>
<path d="M12.6 24.6C15.84 24.6 18.56 23.5333 20.5467 21.6933L16.76 18.76C15.7467 19.4667 14.3867 19.96 12.6 19.96C9.42667 19.96 6.73334 17.8667 5.77334 14.9733L1.89334 17.9867C3.86667 21.9067 7.90667 24.6 12.6 24.6Z" fill="#34A853"/>
</svg>
